<svg width="110" height="24" viewBox="0 0 110 24" fill="none" xmlns="http://www.w3.org/2000/svg">
<path d="M4.176 22.36C3.432 22.36 2.724 22.156 2.052 21.748C1.38 21.316 0.876 20.668 0.54 19.804C0.42 19.492 0.336 19.168 0.288 18.832C0.24 18.472 0.216 18.124 0.216 17.788C0.216 17.452 0.276 17.284 0.396 17.284C0.54 17.284 0.612 17.38 0.612 17.572C0.612 18.7 0.888 19.552 1.44 20.128C2.016 20.704 2.724 20.992 3.564 20.992C4.404 20.992 5.208 20.752 5.976 20.272C6.768 19.792 7.5 19.18 8.172 18.436C9.276 17.236 10.212 16.024 10.98 14.8C11.748 13.552 12.444 12.28 13.068 10.984C13.716 9.664 14.364 8.296 15.012 6.88C15.42 6.016 15.924 5.26 16.524 4.612C17.148 3.964 17.892 3.52 18.756 3.28L18.792 3.244H16.812C15.972 3.244 15.084 3.28 14.148 3.352C13.212 3.424 12.36 3.58 11.592 3.82C10.848 4.06 10.308 4.42 9.972 4.9C9.756 5.212 9.648 5.572 9.648 5.98C9.648 6.388 9.756 6.784 9.972 7.168C10.188 7.552 10.464 7.828 10.8 7.996C10.848 8.044 10.872 8.08 10.872 8.104C10.872 8.152 10.812 8.212 10.692 8.284C10.596 8.332 10.488 8.344 10.368 8.32C10.176 8.2 9.936 8.008 9.648 7.744C9.36 7.456 9.096 7.156 8.856 6.844C8.64 6.532 8.496 6.268 8.424 6.052C8.328 5.764 8.28 5.476 8.28 5.188C8.28 4.612 8.484 4.144 8.892 3.784C9.324 3.424 9.876 3.148 10.548 2.956C11.22 2.764 11.94 2.632 12.708 2.56C13.5 2.464 14.256 2.416 14.976 2.416C15.72 2.392 16.356 2.38 16.884 2.38H20.772C20.82 2.38 20.844 2.392 20.844 2.416C20.844 2.488 20.76 2.596 20.592 2.74C20.448 2.86 20.352 2.92 20.304 2.92C19.704 3.04 19.26 3.364 18.972 3.892C18.684 4.396 18.552 5.212 18.576 6.34C18.576 6.34 18.576 6.604 18.576 7.132C18.6 7.66 18.624 8.344 18.648 9.184C18.672 10.024 18.696 10.924 18.72 11.884C18.744 12.844 18.768 13.768 18.792 14.656C18.816 15.544 18.84 16.288 18.864 16.888V17.104L31.356 3.928C32.148 3.088 32.928 2.38 33.696 1.804C34.488 1.204 35.304 0.939999 36.144 1.012C36.168 1.012 36.18 1.024 36.18 1.048C36.204 1.048 36.216 1.048 36.216 1.048C36.216 1.12 36.168 1.204 36.072 1.3C35.976 1.396 35.868 1.456 35.748 1.48C35.124 1.456 34.56 1.696 34.056 2.2C33.552 2.704 33.084 3.304 32.652 4C32.436 4.36 32.112 4.936 31.68 5.728C31.248 6.496 30.756 7.408 30.204 8.464C29.676 9.52 29.136 10.636 28.584 11.812C28.032 12.988 27.516 14.14 27.036 15.268C26.58 16.396 26.208 17.428 25.92 18.364C25.632 19.276 25.488 20.02 25.488 20.596C25.488 21.268 25.716 21.604 26.172 21.604C26.364 21.604 26.568 21.556 26.784 21.46C27.096 21.34 27.444 21.16 27.828 20.92C28.212 20.68 28.56 20.404 28.872 20.092C29.496 19.492 30.048 18.88 30.528 18.256C31.008 17.608 31.296 17.236 31.392 17.14C31.464 17.044 31.524 16.996 31.572 16.996C31.668 16.996 31.716 17.068 31.716 17.212C31.716 17.356 31.668 17.488 31.572 17.608C31.38 17.848 31.056 18.268 30.6 18.868C30.144 19.444 29.604 20.032 28.98 20.632C28.38 21.232 27.732 21.688 27.036 22C26.82 22.096 26.592 22.168 26.352 22.216C26.112 22.288 25.872 22.324 25.632 22.324C25.104 22.324 24.624 22.168 24.192 21.856C23.784 21.52 23.58 20.968 23.58 20.2C23.58 19.456 23.748 18.616 24.084 17.68C24.444 16.72 24.84 15.796 25.272 14.908C25.728 13.996 26.1 13.228 26.388 12.604C26.7 11.956 27.096 11.128 27.576 10.12C28.056 9.112 28.608 8.092 29.232 7.06L18.864 18.004C18.84 18.196 18.756 18.388 18.612 18.58C18.468 18.748 18.24 18.892 17.928 19.012C17.76 19.084 17.532 19.276 17.244 19.588C16.956 19.9 16.764 20.116 16.668 20.236C16.668 20.26 16.632 20.272 16.56 20.272C16.488 20.272 16.416 20.248 16.344 20.2C16.272 20.152 16.248 20.116 16.272 20.092C16.896 19.3 17.22 18.208 17.244 16.816L17.28 15.952C17.328 14.944 17.364 13.888 17.388 12.784C17.412 11.656 17.424 10.612 17.424 9.652C17.448 8.668 17.46 7.876 17.46 7.276C17.46 6.652 17.46 6.34 17.46 6.34C17.46 5.764 17.544 5.26 17.712 4.828C17.88 4.396 18.084 4.024 18.324 3.712C17.916 4.024 17.52 4.396 17.136 4.828C16.752 5.26 16.428 5.74 16.164 6.268C15.804 7.012 15.396 7.972 14.94 9.148C14.484 10.324 13.956 11.572 13.356 12.892C12.78 14.212 12.132 15.508 11.412 16.78C10.716 18.028 9.936 19.108 9.072 20.02C8.472 20.668 7.704 21.22 6.768 21.676C5.856 22.132 4.992 22.36 4.176 22.36ZM45.2188 22.36C44.4748 22.36 43.7668 22.156 43.0948 21.748C42.4228 21.316 41.9188 20.668 41.5828 19.804C41.4628 19.492 41.3788 19.168 41.3308 18.832C41.2828 18.472 41.2588 18.124 41.2588 17.788C41.2588 17.452 41.3188 17.284 41.4388 17.284C41.5828 17.284 41.6548 17.38 41.6548 17.572C41.6548 18.7 41.9308 19.552 42.4828 20.128C43.0588 20.704 43.7668 20.992 44.6068 20.992C45.4468 20.992 46.2508 20.752 47.0188 20.272C47.8108 19.792 48.5428 19.18 49.2148 18.436C50.3188 17.236 51.2548 16.024 52.0228 14.8C52.7908 13.552 53.4868 12.28 54.1108 10.984C54.7588 9.664 55.4068 8.296 56.0548 6.88C56.4628 6.016 56.9668 5.26 57.5668 4.612C58.1908 3.964 58.9348 3.52 59.7988 3.28L59.8348 3.244H57.8548C57.0148 3.244 56.1268 3.28 55.1908 3.352C54.2548 3.424 53.4028 3.58 52.6348 3.82C51.8908 4.06 51.3508 4.42 51.0148 4.9C50.7988 5.212 50.6908 5.572 50.6908 5.98C50.6908 6.388 50.7988 6.784 51.0148 7.168C51.2308 7.552 51.5068 7.828 51.8428 7.996C51.8908 8.044 51.9148 8.08 51.9148 8.104C51.9148 8.152 51.8548 8.212 51.7348 8.284C51.6388 8.332 51.5308 8.344 51.4108 8.32C51.2188 8.2 50.9788 8.008 50.6908 7.744C50.4028 7.456 50.1388 7.156 49.8988 6.844C49.6828 6.532 49.5388 6.268 49.4668 6.052C49.3708 5.764 49.3228 5.476 49.3228 5.188C49.3228 4.612 49.5268 4.144 49.9348 3.784C50.3668 3.424 50.9188 3.148 51.5908 2.956C52.2628 2.764 52.9828 2.632 53.7508 2.56C54.5428 2.464 55.2988 2.416 56.0188 2.416C56.7628 2.392 57.3988 2.38 57.9268 2.38H61.8148C61.8628 2.38 61.8868 2.392 61.8868 2.416C61.8868 2.488 61.8028 2.596 61.6348 2.74C61.4908 2.86 61.3948 2.92 61.3468 2.92C60.7468 3.04 60.3028 3.364 60.0148 3.892C59.7268 4.396 59.5948 5.212 59.6188 6.34C59.6188 6.34 59.6188 6.604 59.6188 7.132C59.6428 7.66 59.6668 8.344 59.6908 9.184C59.7148 10.024 59.7388 10.924 59.7628 11.884C59.7868 12.844 59.8108 13.768 59.8348 14.656C59.8588 15.544 59.8828 16.288 59.9068 16.888V17.104L72.3988 3.928C73.1908 3.088 73.9708 2.38 74.7388 1.804C75.5308 1.204 76.3468 0.939999 77.1868 1.012C77.2108 1.012 77.2228 1.024 77.2228 1.048C77.2468 1.048 77.2588 1.048 77.2588 1.048C77.2588 1.12 77.2108 1.204 77.1148 1.3C77.0188 1.396 76.9108 1.456 76.7908 1.48C76.1668 1.456 75.6028 1.696 75.0988 2.2C74.5948 2.704 74.1268 3.304 73.6948 4C73.4788 4.36 73.1548 4.936 72.7228 5.728C72.2908 6.496 71.7988 7.408 71.2468 8.464C70.7188 9.52 70.1788 10.636 69.6268 11.812C69.0748 12.988 68.5588 14.14 68.0788 15.268C67.6228 16.396 67.2508 17.428 66.9628 18.364C66.6748 19.276 66.5308 20.02 66.5308 20.596C66.5308 21.268 66.7588 21.604 67.2148 21.604C67.4068 21.604 67.6108 21.556 67.8268 21.46C68.1388 21.34 68.4868 21.16 68.8708 20.92C69.2548 20.68 69.6028 20.404 69.9148 20.092C70.5388 19.492 71.0908 18.88 71.5708 18.256C72.0508 17.608 72.3388 17.236 72.4348 17.14C72.5068 17.044 72.5668 16.996 72.6148 16.996C72.7108 16.996 72.7588 17.068 72.7588 17.212C72.7588 17.356 72.7108 17.488 72.6148 17.608C72.4228 17.848 72.0988 18.268 71.6428 18.868C71.1868 19.444 70.6468 20.032 70.0228 20.632C69.4228 21.232 68.7748 21.688 68.0788 22C67.8628 22.096 67.6348 22.168 67.3948 22.216C67.1548 22.288 66.9148 22.324 66.6748 22.324C66.1468 22.324 65.6668 22.168 65.2348 21.856C64.8268 21.52 64.6228 20.968 64.6228 20.2C64.6228 19.456 64.7908 18.616 65.1268 17.68C65.4868 16.72 65.8828 15.796 66.3148 14.908C66.7708 13.996 67.1428 13.228 67.4308 12.604C67.7428 11.956 68.1388 11.128 68.6188 10.12C69.0988 9.112 69.6508 8.092 70.2748 7.06L59.9068 18.004C59.8828 18.196 59.7988 18.388 59.6548 18.58C59.5108 18.748 59.2828 18.892 58.9708 19.012C58.8028 19.084 58.5748 19.276 58.2868 19.588C57.9988 19.9 57.8068 20.116 57.7108 20.236C57.7108 20.26 57.6748 20.272 57.6028 20.272C57.5308 20.272 57.4588 20.248 57.3868 20.2C57.3148 20.152 57.2908 20.116 57.3148 20.092C57.9388 19.3 58.2628 18.208 58.2868 16.816L58.3228 15.952C58.3708 14.944 58.4068 13.888 58.4308 12.784C58.4548 11.656 58.4668 10.612 58.4668 9.652C58.4908 8.668 58.5028 7.876 58.5028 7.276C58.5028 6.652 58.5028 6.34 58.5028 6.34C58.5028 5.764 58.5868 5.26 58.7548 4.828C58.9228 4.396 59.1268 4.024 59.3668 3.712C58.9588 4.024 58.5628 4.396 58.1788 4.828C57.7948 5.26 57.4708 5.74 57.2068 6.268C56.8468 7.012 56.4388 7.972 55.9828 9.148C55.5268 10.324 54.9988 11.572 54.3988 12.892C53.8228 14.212 53.1748 15.508 52.4548 16.78C51.7588 18.028 50.9788 19.108 50.1148 20.02C49.5148 20.668 48.7468 21.22 47.8108 21.676C46.8988 22.132 46.0348 22.36 45.2188 22.36ZM87.4136 23.404C86.6696 23.404 85.9616 23.188 85.2896 22.756C84.6176 22.348 84.1136 21.712 83.7776 20.848C83.6576 20.536 83.5736 20.2 83.5256 19.84C83.4776 19.48 83.4536 19.144 83.4536 18.832V18.508C83.4536 18.316 83.4656 18.124 83.4896 17.932C83.5376 17.74 83.6456 17.644 83.8136 17.644C83.8616 17.644 83.8856 17.668 83.8856 17.716C83.8856 17.86 83.8736 18.016 83.8496 18.184C83.8496 18.328 83.8496 18.472 83.8496 18.616C83.8496 19.744 84.1256 20.596 84.6776 21.172C85.2536 21.748 85.9616 22.036 86.8016 22.036C87.6416 22.036 88.4576 21.796 89.2496 21.316C90.0416 20.836 90.7736 20.224 91.4456 19.48C92.1176 18.736 92.7536 17.812 93.3536 16.708C93.9536 15.604 94.5176 14.44 95.0456 13.216C95.5736 11.968 96.0656 10.744 96.5216 9.544C97.0016 8.344 97.4456 7.276 97.8536 6.34C98.0936 5.788 98.5376 5.32 99.1856 4.936C99.8576 4.552 100.494 4.276 101.094 4.108C100.926 4.084 100.758 4.072 100.59 4.072C100.446 4.048 100.302 4.024 100.158 4L95.0816 3.496C94.6976 3.448 94.1936 3.412 93.5696 3.388C92.9456 3.364 92.2856 3.352 91.5896 3.352C90.6536 3.352 89.6936 3.412 88.7096 3.532C87.7256 3.628 86.8376 3.808 86.0456 4.072C85.2536 4.336 84.6776 4.732 84.3176 5.26C84.1256 5.548 84.0296 5.884 84.0296 6.268C84.0296 6.652 84.1376 7.012 84.3536 7.348C84.5696 7.684 84.8456 7.948 85.1816 8.14C85.2296 8.188 85.2536 8.224 85.2536 8.248C85.2536 8.32 85.1936 8.38 85.0736 8.428C84.9776 8.476 84.8696 8.476 84.7496 8.428C84.5336 8.308 84.2816 8.104 83.9936 7.816C83.7056 7.528 83.4416 7.228 83.2016 6.916C82.9856 6.58 82.8296 6.304 82.7336 6.088C82.5896 5.68 82.5176 5.32 82.5176 5.008C82.5176 4.432 82.7096 3.964 83.0936 3.604C83.5016 3.22 84.0176 2.932 84.6416 2.74C85.2896 2.524 85.9736 2.38 86.6936 2.308C87.4376 2.212 88.1456 2.164 88.8176 2.164C89.0816 2.164 89.3336 2.164 89.5736 2.164C89.8136 2.164 90.0416 2.176 90.2576 2.2C91.0256 2.248 91.8296 2.296 92.6696 2.344C93.5096 2.392 94.3616 2.452 95.2256 2.524L100.95 2.992C101.334 3.016 101.91 3.064 102.678 3.136C103.47 3.184 104.274 3.208 105.09 3.208C105.978 3.208 106.794 3.16 107.538 3.064C108.282 2.944 108.774 2.74 109.014 2.452C109.062 2.356 109.134 2.332 109.23 2.38C109.326 2.428 109.35 2.488 109.302 2.56C109.23 2.848 109.134 3.064 109.014 3.208C108.894 3.448 108.726 3.712 108.51 4C108.318 4.288 108.018 4.48 107.61 4.576C107.514 4.6 107.382 4.624 107.214 4.648C107.046 4.648 106.866 4.648 106.674 4.648C106.122 4.648 105.45 4.612 104.658 4.54C103.89 4.444 103.134 4.348 102.39 4.252C101.67 4.372 101.046 4.708 100.518 5.26C99.9896 5.812 99.5336 6.448 99.1496 7.168C98.7656 7.864 98.4296 8.524 98.1416 9.148C97.6136 10.228 97.1696 11.224 96.8096 12.136C96.4736 13.024 96.0536 14.008 95.5496 15.088C95.0456 16.192 94.5176 17.284 93.9656 18.364C93.4136 19.42 92.7416 20.38 91.9496 21.244C91.3496 21.892 90.6536 22.408 89.8616 22.792C89.0696 23.2 88.2536 23.404 87.4136 23.404Z" fill="white"/>
</svg>
