<svg width="32" height="15" viewBox="0 0 32 15" fill="none" xmlns="http://www.w3.org/2000/svg">
<path d="M2.808 14.936C2.312 14.936 1.84 14.792 1.392 14.504C0.944 14.232 0.608 13.808 0.384 13.232C0.304 13.024 0.248 12.8 0.216 12.56C0.2 12.32 0.192 12.088 0.192 11.864C0.192 11.64 0.232 11.528 0.312 11.528C0.392 11.528 0.432 11.6 0.432 11.744C0.432 12.48 0.616 13.048 0.984 13.448C1.368 13.832 1.848 14.024 2.424 14.024C3.128 14.024 3.784 13.832 4.392 13.448C5.016 13.064 5.584 12.592 6.096 12.032C6.608 11.456 7.064 10.88 7.464 10.304C7.272 10.416 7.112 10.472 6.984 10.472C6.808 10.472 6.728 10.408 6.744 10.28C6.744 10.248 6.752 10.208 6.768 10.16C6.8 10.096 6.824 10.048 6.84 10.016C6.888 9.888 6.928 9.752 6.96 9.608C7.008 9.464 7.056 9.328 7.104 9.2C7.232 8.688 7.36 8.048 7.488 7.28C7.616 6.512 7.68 5.736 7.68 4.952C7.68 4.28 7.616 3.64 7.488 3.032C7.36 2.424 7.128 1.928 6.792 1.544H6.216C5.976 1.544 5.64 1.56 5.208 1.592C4.792 1.624 4.368 1.696 3.936 1.808C3.504 1.92 3.144 2.104 2.856 2.36C2.568 2.616 2.44 2.96 2.472 3.392C2.488 3.52 2.536 3.696 2.616 3.92C2.696 4.128 2.744 4.256 2.76 4.304L2.52 4.496C2.424 4.32 2.304 4.12 2.16 3.896C2.016 3.656 1.88 3.424 1.752 3.2C1.64 2.976 1.576 2.808 1.56 2.696C1.544 2.536 1.552 2.328 1.584 2.072C1.632 1.816 1.76 1.592 1.968 1.4C2.208 1.192 2.536 1.056 2.952 0.991999C3.384 0.927999 3.824 0.896 4.272 0.896C4.704 0.896 5.12 0.912 5.52 0.943999C5.92 0.975999 6.248 0.991999 6.504 0.991999C6.504 0.991999 6.872 0.991999 7.608 0.991999C8.36 0.975999 9.272 0.967999 10.344 0.967999L9.84 1.592C9.392 1.592 9.024 1.592 8.736 1.592C8.464 1.576 8.216 1.568 7.992 1.568C7.784 1.552 7.528 1.544 7.224 1.544C7.784 1.928 8.168 2.472 8.376 3.176C8.6 3.88 8.712 4.632 8.712 5.432C8.712 6.12 8.656 6.8 8.544 7.472C8.432 8.128 8.312 8.688 8.184 9.152C8.936 8.112 9.656 7.04 10.344 5.936C11.032 4.832 11.8 3.792 12.648 2.816C12.92 2.512 13.24 2.168 13.608 1.784C13.992 1.384 14.408 1.032 14.856 0.727999C15.32 0.423999 15.784 0.271999 16.248 0.271999C16.472 0.271999 16.664 0.319999 16.824 0.415999C16.984 0.512 17.12 0.68 17.232 0.92C17.312 1.112 17.352 1.288 17.352 1.448C17.352 1.704 17.304 1.936 17.208 2.144C17.112 2.352 17.04 2.512 16.992 2.624C16.976 2.688 16.936 2.72 16.872 2.72C16.808 2.72 16.784 2.688 16.8 2.624C16.832 2.544 16.848 2.464 16.848 2.384C16.848 2.304 16.848 2.232 16.848 2.168C16.848 1.88 16.776 1.616 16.632 1.376C16.488 1.136 16.256 1.016 15.936 1.016C15.488 1.016 14.992 1.24 14.448 1.688C13.904 2.136 13.4 2.624 12.936 3.152C12.104 4.112 11.384 5.024 10.776 5.888C10.184 6.752 9.624 7.632 9.096 8.528C8.568 9.408 8 10.376 7.392 11.432C7.056 12.024 6.664 12.592 6.216 13.136C5.784 13.664 5.288 14.096 4.728 14.432C4.184 14.768 3.544 14.936 2.808 14.936ZM23.5956 14.816C23.0356 14.816 22.4436 14.728 21.8196 14.552C21.2116 14.392 20.6676 14.12 20.1876 13.736C19.7236 13.352 19.4116 12.84 19.2516 12.2C19.2356 12.12 19.2196 12.032 19.2036 11.936C19.2036 11.84 19.2036 11.744 19.2036 11.648C19.2036 11.152 19.3156 10.672 19.5396 10.208C19.7636 9.744 20.0356 9.392 20.3556 9.152H20.3796C20.4116 9.152 20.4516 9.192 20.4996 9.272C20.5636 9.336 20.5636 9.384 20.4996 9.416C20.3396 9.576 20.2196 9.76 20.1396 9.968C20.0756 10.16 20.0436 10.368 20.0436 10.592C20.0436 10.896 20.0916 11.208 20.1876 11.528C20.2996 11.832 20.4356 12.096 20.5956 12.32C20.9956 12.88 21.5476 13.328 22.2516 13.664C22.9716 13.984 23.6756 14.144 24.3636 14.144C25.3076 14.144 26.0356 13.864 26.5476 13.304C27.0756 12.744 27.3396 12.056 27.3396 11.24C27.3396 10.744 27.2436 10.248 27.0516 9.752C26.7956 9.064 26.4516 8.392 26.0196 7.736C25.6036 7.064 25.2196 6.408 24.8676 5.768C24.5636 5.192 24.4116 4.608 24.4116 4.016C24.4116 3.392 24.6036 2.792 24.9876 2.216C25.3716 1.704 25.8756 1.296 26.4996 0.991999C27.1396 0.671999 27.7876 0.511999 28.4436 0.511999C28.8916 0.511999 29.3236 0.591999 29.7396 0.751999C30.1556 0.911999 30.5316 1.176 30.8676 1.544C30.9636 1.688 31.0116 1.872 31.0116 2.096C31.0116 2.416 30.9476 2.664 30.8196 2.84C30.6756 3.048 30.5156 3.32 30.3396 3.656C30.1636 3.992 30.0596 4.224 30.0276 4.352C29.9956 4.368 29.9156 4.4 29.7876 4.448C29.6756 4.48 29.6036 4.472 29.5716 4.424C29.6356 4.296 29.7236 4.064 29.8356 3.728C29.9476 3.392 30.0036 3.088 30.0036 2.816C30.0036 2.64 29.9956 2.448 29.9796 2.24C29.9796 2.016 29.8756 1.824 29.6676 1.664C29.4756 1.488 29.2276 1.336 28.9236 1.208C28.6196 1.08 28.2516 1.016 27.8196 1.016C26.9396 1.016 26.2676 1.272 25.8036 1.784C25.3396 2.296 25.1076 2.856 25.1076 3.464C25.1076 3.768 25.1716 4.072 25.2996 4.376C25.5396 4.952 25.8756 5.496 26.3076 6.008C26.7396 6.52 27.1636 7.048 27.5796 7.592C28.0116 8.12 28.3476 8.696 28.5876 9.32C28.7476 9.736 28.8276 10.16 28.8276 10.592C28.8276 11.216 28.6676 11.784 28.3476 12.296C28.0436 12.808 27.6276 13.256 27.0996 13.64C26.5876 14.008 26.0276 14.296 25.4196 14.504C24.8116 14.712 24.2036 14.816 23.5956 14.816Z" fill="white"/>
</svg>
