<svg width="43" height="43" viewBox="0 0 43 43" fill="none" xmlns="http://www.w3.org/2000/svg">
<path d="M34.8479 7.25624C32.2347 4.6354 28.9034 2.84784 25.2748 2.11936C21.6461 1.39088 17.883 1.75417 14.4608 3.16334C11.0385 4.5725 8.11066 6.96432 6.04708 10.0366C3.98349 13.109 2.87675 16.724 2.86667 20.425C2.82585 23.7027 3.69408 26.9275 5.375 29.7417L2.6875 39.4167L12.6313 36.8187C15.3749 38.3236 18.4605 39.095 21.5896 39.0583C25.2805 39.0733 28.8927 37.9918 31.9681 35.951C35.0436 33.9102 37.4436 31.002 38.8639 27.5952C40.2842 24.1885 40.6607 20.4367 39.9457 16.8157C39.2307 13.1946 37.4565 9.86749 34.8479 7.25624ZM21.5896 35.9229C18.5675 35.9446 15.6064 35.0719 13.0792 33.4146L7.16667 35.0271L8.77917 29.2937C6.99833 26.6764 6.03205 23.5905 6.00208 20.425C5.98434 17.3383 6.88343 14.3159 8.58539 11.7408C10.2873 9.16565 12.7155 7.15383 15.5622 5.9603C18.4088 4.76677 21.5457 4.44528 24.5753 5.03657C27.6048 5.62786 30.3906 7.10532 32.5795 9.28166C34.7685 11.458 36.262 14.2352 36.8707 17.2613C37.4794 20.2874 37.176 23.4261 35.9989 26.2796C34.8218 29.1331 32.824 31.5728 30.2588 33.2896C27.6935 35.0064 24.6763 35.9229 21.5896 35.9229Z" fill="white"/>
<path d="M30.1 24.3667C29.0609 23.7862 27.9834 23.2774 26.875 22.8437C26.5167 22.6646 26.1583 22.575 25.8896 23.0229C25.6208 23.4708 24.6354 24.5458 24.3667 24.9042C24.2454 25.0429 24.0754 25.1296 23.8919 25.1463C23.7084 25.163 23.5255 25.1084 23.3813 24.9937C22.0085 24.4277 20.7375 23.6409 19.6188 22.6646C18.5913 21.7303 17.715 20.6424 17.0208 19.4396C16.9712 19.3699 16.9364 19.2907 16.9185 19.207C16.9006 19.1233 16.9 19.0369 16.9168 18.9529C16.9336 18.869 16.9674 18.7894 17.0161 18.719C17.0648 18.6487 17.1274 18.589 17.2 18.5437L17.9167 17.6479C18.0976 17.4303 18.2483 17.1893 18.3646 16.9312C18.4354 16.8087 18.4726 16.6696 18.4726 16.5281C18.4726 16.3866 18.4354 16.2476 18.3646 16.125C18.1854 15.8562 17.2896 13.6167 16.9313 12.6312C16.5729 11.6458 16.125 11.825 15.8563 11.825H14.9604C14.7164 11.8214 14.4751 11.8765 14.2569 11.9856C14.0386 12.0947 13.8498 12.2547 13.7063 12.4521C13.1718 12.9369 12.7504 13.5332 12.4717 14.1988C12.1931 14.8645 12.0641 15.5832 12.0938 16.3042C12.2499 18.0623 12.9023 19.7399 13.975 21.1417C14.2438 21.4104 17.2896 26.1583 21.9479 28.1292C22.8095 28.5443 23.7097 28.8744 24.6354 29.1146C25.5881 29.4322 26.6076 29.494 27.5917 29.2937C28.4875 29.2042 30.3688 28.2187 30.7271 27.1437C31.0854 26.0687 31.175 25.0833 30.9958 24.9042C30.754 24.644 30.4434 24.4577 30.1 24.3667Z" fill="white"/>
</svg>
